<svg xmlns="http://www.w3.org/2000/svg" xmlns:xlink="http://www.w3.org/1999/xlink" width="200" height="250" version="1"><defs><linearGradient gradientTransform="translate(178.438 157.211)" gradientUnits="userSpaceOnUse" id="n" x1="-21.764" x2="-101.909" xlink:href="#a" y1="46.291" y2="98.109"/><linearGradient gradientTransform="translate(21.438 166.208)" gradientUnits="userSpaceOnUse" id="m" x1="53.127" x2="65.8" xlink:href="#b" y1="122.476" y2="113.287"/><linearGradient gradientTransform="matrix(.145 0 0 .145 31.882 221.523)" gradientUnits="userSpaceOnUse" id="l" x1="294.246" x2="312.092" xlink:href="#c" y1="346.327" y2="322.139"/><linearGradient gradientUnits="userSpaceOnUse" id="k" x1="653" x2="708" xlink:href="#d" y1="210.362" y2="160.362"/><linearGradient gradientUnits="userSpaceOnUse" id="j" x1="632" x2="698" xlink:href="#e" y1="146.362" y2="85.362"/><linearGradient id="f"><stop offset="0" stop-color="#008200"/><stop offset="1" stop-color="#00d000"/></linearGradient><linearGradient gradientTransform="matrix(.145 0 0 .145 34.484 222.174)" gradientUnits="userSpaceOnUse" id="i" x1="298.986" x2="449.323" xlink:href="#f" y1="540.539" y2="415.539"/><linearGradient gradientTransform="matrix(.187 0 0 .145 9.089 209.533)" gradientUnits="userSpaceOnUse" id="h" x1="356.442" x2="484.796" xlink:href="#b" y1="437.499" y2="256.18"/><linearGradient gradientTransform="translate(175.438 261.211)" gradientUnits="userSpaceOnUse" x1="-21.764" x2="-101.909" xlink:href="#a" y1="46.291" y2="98.109"/><linearGradient gradientTransform="translate(18.438 270.208)" gradientUnits="userSpaceOnUse" x1="53.127" x2="65.8" xlink:href="#b" y1="122.476" y2="113.287"/><linearGradient gradientTransform="matrix(.145 0 0 .145 28.882 325.523)" gradientUnits="userSpaceOnUse" x1="294.246" x2="312.092" xlink:href="#c" y1="346.327" y2="322.139"/><linearGradient gradientUnits="userSpaceOnUse" x1="653" x2="708" xlink:href="#d" y1="210.362" y2="160.362"/><linearGradient gradientUnits="userSpaceOnUse" x1="632" x2="698" xlink:href="#e" y1="146.362" y2="85.362"/><linearGradient gradientTransform="matrix(.145 0 0 .145 31.484 326.174)" gradientUnits="userSpaceOnUse" x1="298.986" x2="449.323" xlink:href="#g" y1="540.539" y2="415.539"/><linearGradient gradientTransform="matrix(.187 0 0 .145 6.089 313.533)" gradientUnits="userSpaceOnUse" x1="356.442" x2="484.796" xlink:href="#b" y1="437.499" y2="256.18"/><linearGradient id="e"><stop offset="0" stop-color="#f0a700"/><stop offset="1" stop-color="#ffed00"/></linearGradient><linearGradient id="a"><stop offset="0" stop-color="#fff"/><stop offset="1" stop-color="#fff" stop-opacity="0"/></linearGradient><linearGradient><stop offset="0" stop-color="#0083cc"/><stop offset="1" stop-color="#24a4cc"/></linearGradient><linearGradient id="d"><stop offset="0" stop-color="#f0eb00"/><stop offset="1" stop-color="#ff0"/></linearGradient><linearGradient id="c"><stop offset="0" stop-color="#c10000"/><stop offset="1" stop-color="#ff433e"/></linearGradient><linearGradient id="g"><stop offset="0" stop-color="#ff44ab"/><stop offset="1" stop-color="#f6c"/></linearGradient><linearGradient id="b"><stop offset="0" stop-color="#ffd8c1"/><stop offset="1" stop-color="#ffeded"/></linearGradient></defs><g><path d="M199 10c0-5-4-9-9-9H10c-5 0-9 4-9 9v230c0 5 4 9 9 9h180c5 0 9-4 9-9V10z" fill="#fff" fill-rule="evenodd" stroke="#000" stroke-width="2"/><text style="text-align:center;line-height:125%" x="21.646" y="36" font-size="32" text-anchor="middle" fill="#f00" stroke="#f00" font-family="Nimbus Roman No9 L"><tspan x="21.646" y="36" style="text-align:center;line-height:125%" font-size="32" text-anchor="middle" fill="#f00" stroke="#f00" font-family="Nimbus Roman No9 L">Q</tspan></text><path d="M177.315 205.4c0 1.2-2 3.6-4 3.6s-4-1.6-4-4.4c0-4.4 6.4-11.6 8-13.6 1.6 2 8 9.2 8 13.6 0 2.8-2 4.4-4 4.4-2.01 0-4-2.4-4-3.6z" fill="#f00" fill-rule="evenodd" stroke="#f00"/><text style="text-align:center;line-height:125%" x="-176.985" y="-215.752" transform="scale(-1)" font-size="32" text-anchor="middle" fill="#f00" stroke="#f00" font-family="Nimbus Roman No9 L"><tspan x="-176.985" y="-215.752" style="text-align:center;line-height:125%" font-size="32" text-anchor="middle" fill="#f00" stroke="#f00" font-family="Nimbus Roman No9 L">Q</tspan></text><path fill="#f99" stroke="#f00" stroke-width="2" stroke-linecap="round" d="M40 27.5h120v195H40z"/><path d="M66.315 210.5c0 3-5 9-10 9s-10-4-10-11c0-11 16-29 20-34 4 5 20 23 20 34 0 7-5 11-10 11-5.024 0-10-6-10-9z" fill="#f00" fill-rule="evenodd" stroke="#f00"/><path d="M134.316 39.5c0-3-5-9-10-9s-10 4-10 11c0 11 16 29 20 34 4-5 20-23 20-34 0-7-5-11-10-11-5.025 0-10 6-10 9z" fill="#f00" fill-rule="evenodd" stroke="#f00"/><path d="M21.316 47.1c0-1.2-2-3.6-4-3.6s-4 1.6-4 4.4c0 4.4 6.4 11.6 8 13.6 1.6-2 8-9.2 8-13.6 0-2.8-2-4.4-4-4.4-2.01 0-4 2.4-4 3.6z" fill="#f00" fill-rule="evenodd" stroke="#f00"/><g><path d="M93.588 83.004c.248 8.39-8.775-11.842-4.95 1.018-.178 4.945 5.745 12.646 1.643 15.655-5.488 3.2-9.414 8.682-11.28 14.72 6.724-.956 2.783 4.806 3.49 8.9.204 7.75 5.8 16.134 12.774 19.9-8.466 1.63-11.54 8.884-10.67 15.892-5.693 3.823-.008 8.983-.85 12.524 1.62 3.99 8.94 3.764 13.069 4.938 10.52.87 21.44.545 31.343-3.5-.824-9.425 4.237-22.266-8.29-28.644 6.225-.116 14.1-1.57 20.134-2.887-6.864-2.708-18.925-5.577-16.76-15.307 1.535-11.465-2.272-26.823-15.427-28.974 1.028-6.323 2.548-12.59 2.5-19.032-5.678 14.51-4.547-8.82-7.22 1.218-2.053 7.803-3.522-10.377-5.18 2.977-1.974-2.183-3.702-14.038-3.853-2.275l-.472 2.876z" stroke-width="2"/><path d="M99.66 256.88c0 11.414-7.563 20.677-16.883 20.677s-16.884-9.263-16.884-20.676c0-11.412 7.564-20.675 16.884-20.675s16.884 9.263 16.884 20.676z" fill="url(#h)" stroke-width="2" transform="translate(18.5 -134.75)"/><path d="M79.737 278.71c-7.05 0-12.72 5.67-12.72 12.718v3.187c-1.176 1.834-2.332 3.554-2.093 4.97.177 1.044 1.093 1.892 2.094 2.624v4.124c9.38 4.65 29.532 4.894 40.625 0v-14.906c0-7.05-5.67-12.72-12.72-12.72H79.738z" fill="url(#i)" stroke-width="2" transform="translate(18.5 -134.75)"/><path d="M81.738 112.83s3.897-14.13 20.612-14.41c16.434-.28 20.82 13.882 18.967 29.832-1.713 8.5 11.9 12.785 11.9 12.785-4.852 1.577-16.45 3.014-23.693.516 6.288-4.722 1.046-27.348-2.38-30.284-4.268 3.387-21.033 3.094-25.406 1.56z" fill="#8d0000" fill-rule="evenodd" stroke-width="1.537"/><g stroke-width="2"><path d="M100.987 121.553c0 1.72-1.364 3.118-3.045 3.118-1.68 0-3.045-1.396-3.045-3.117 0-1.72 1.364-3.117 3.045-3.117 1.68 0 3.045 1.396 3.045 3.117z" fill="#fff"/><path d="M98.427 121.528c0 1.436-.78 2.602-1.743 2.602-.962 0-1.743-1.166-1.743-2.602s.782-2.6 1.744-2.6 1.743 1.164 1.743 2.6z" fill="#0c0"/><path d="M97.148 121.894c0 1.164-.49 2.107-1.092 2.107-.603 0-1.092-.942-1.092-2.106 0-1.163.49-2.107 1.092-2.107.603 0 1.092.944 1.092 2.107z"/></g><g fill-rule="evenodd"><path d="M618 99.362l10-85 38 115s34-123 34-119 23 91 23 91l-18 70h-77l-10-72z" fill="url(#j)" transform="matrix(.12 0 0 .097 20.097 79.125)"/><path d="M589 51.362l36 179c27 10.667 60 9.334 84 1l25-178-44 89-23-119-23 118-55-90z" fill="url(#k)" transform="matrix(.12 0 0 .097 20.097 79.125)"/></g><g stroke-width="2"><path d="M90.898 121.05c0 1.72-1.364 3.117-3.045 3.117-1.68 0-3.045-1.397-3.045-3.118 0-1.722 1.364-3.118 3.045-3.118 1.68 0 3.045 1.396 3.045 3.117z" fill="#fff"/><path d="M88.338 121.024c0 1.436-.78 2.602-1.743 2.602-.962 0-1.743-1.166-1.743-2.602s.78-2.6 1.743-2.6c.962 0 1.743 1.164 1.743 2.6z" fill="#0c0"/><path d="M87.06 121.39c0 1.164-.49 2.107-1.093 2.107s-1.092-.943-1.092-2.107c0-1.163.49-2.107 1.092-2.107.603 0 1.092.944 1.092 2.107z"/></g><path d="M71.227 268.92c3.53 4.413 6.935 2.9 11.727 0-4.287-.253-7.188-1.514-11.727 0z" fill="url(#l)" fill-rule="evenodd" transform="translate(18.5 -134.75)"/><path d="M112.35 159.824l1.263.124 1.37 14.512-3.464.25.83-14.886z" fill="#005a00" stroke-width="2"/><path d="M95.72 165.27l-.814.563c2.044 2.96 3.742 5.674 5.887 6.057 2.146.383 4.673-1.55 6.707-2.463l-.406-.906c-1.956.88-3.844 1.424-5.688 1.094-1.844-.33-3.74-1.523-5.687-4.343z" fill="#005a00" fill-rule="evenodd"/><path d="M91.388 123.723c-.792 1.287-1.734 2.49-1.57 3.463.164.972 1.442 1.674 2.232 2.235l.33-.477c-.694-.493-1.15-1.13-1.286-1.93-.135-.8.05-1.792.79-2.996l-.496-.294z" fill-rule="evenodd"/><path d="M77.724 279.245s-6.318 11.774-4.882 20.39c5.456-9.764 12.635-19.24 16.656-20.964-1.436-.573-10.338-.286-11.774.575z" fill="url(#m)" fill-rule="evenodd" transform="translate(18.5 -134.75)"/><path d="M83.336 164.757c.28 1.654 2.45 2.847 3.794 3.8l.327-.27c-1.18-.837-1.764-.955-1.994-2.315-.23-1.36-2.407-2.868-2.127-1.215z" fill="#005a00" fill-rule="evenodd"/><path d="M85.47 214.9c0-.244-1.37 3.726-2.564 7.186L81.5 216.15l-1.594 6.655-3.062-7.53-1.22 8.186-3.468-4.593 3.906 15.782c-10.095 3.594-12.812 12.936-12.812 12.936.89.312 2.514.53 4.22.72-.984 2.62-1.564 5.52-1.564 8.593 0 11.412 7.555 20.655 16.875 20.655 3.865 0 7.374-1.666 10.22-4.344-.467 1.305-1.066 2.417-1.97 3.095 7.243 2.498 18.836 1.077 23.69-.5 0 0-13.62-4.31-11.907-12.813 1.722-14.82-2.07-27.917-15.782-29.5l2.5-14.437-1.843 3c-.683-2.107-2.218-6.84-2.218-7.156zm-5.72 63.81c-7.05 0-12.72 5.67-12.72 12.72v3.187c-1.176 1.834-2.332 3.554-2.093 4.97.177 1.043 1.093 1.89 2.094 2.624v4.157c6.013 2.98 16.362 3.926 26 3.094 1.15-.098 2.322-.093 3.44-.25 4.133-.578 8.05-1.46 11.186-2.843V291.43c0-7.05-5.7-12.72-12.75-12.72H79.75z" fill="url(#n)" stroke-width="2" transform="translate(18.5 -134.75)"/></g></g></svg>