<svg xmlns="http://www.w3.org/2000/svg" xmlns:xlink="http://www.w3.org/1999/xlink" width="200" height="250" version="1"><defs><linearGradient gradientTransform="matrix(.187 0 0 .145 -5.338 38.237)" gradientUnits="userSpaceOnUse" id="p" x1="652.295" x2="410.906" xlink:href="#a" y1="77.395" y2="344.417"/><linearGradient gradientUnits="userSpaceOnUse" id="o" x1="104.75" x2="109.5" xlink:href="#b" y1="57.469" y2="55.781"/><linearGradient gradientTransform="translate(-35.991 2.47)" gradientUnits="userSpaceOnUse" id="n" x1="93.5" x2="117.139" xlink:href="#c" y1="62.938" y2="57.702"/><linearGradient gradientTransform="translate(-39.518 2.595)" gradientUnits="userSpaceOnUse" id="m" x1="103.563" x2="111.883" xlink:href="#b" y1="65.109" y2="62.671"/><linearGradient gradientTransform="translate(-76.637 -172.25)" gradientUnits="userSpaceOnUse" id="l" x1="137.878" x2="144.193" xlink:href="#d" y1="284.842" y2="281.229"/><linearGradient gradientTransform="translate(-35.991 2.47)" gradientUnits="userSpaceOnUse" id="k" x1="101.393" x2="105.545" xlink:href="#b" y1="124.161" y2="120.973"/><linearGradient gradientTransform="matrix(.145 0 0 .145 17.456 51.558)" gradientUnits="userSpaceOnUse" id="j" x1="294.246" x2="312.092" xlink:href="#e" y1="346.327" y2="322.139"/><linearGradient gradientTransform="matrix(.145 0 0 .145 19.577 50.205)" gradientUnits="userSpaceOnUse" id="i" x1="298.986" x2="449.323" xlink:href="#c" y1="540.539" y2="415.539"/><linearGradient gradientTransform="matrix(.187 0 0 .145 -5.337 38.225)" gradientUnits="userSpaceOnUse" id="h" x1="356.442" x2="484.796" xlink:href="#f" y1="437.499" y2="256.18"/><linearGradient gradientTransform="translate(178.438 157.211)" gradientUnits="userSpaceOnUse" x1="-21.764" x2="-101.909" xlink:href="#a" y1="46.291" y2="98.109"/><linearGradient gradientTransform="translate(21.438 166.208)" gradientUnits="userSpaceOnUse" x1="53.127" x2="65.8" xlink:href="#f" y1="122.476" y2="113.287"/><linearGradient gradientTransform="matrix(.145 0 0 .145 31.882 221.523)" gradientUnits="userSpaceOnUse" x1="294.246" x2="312.092" xlink:href="#e" y1="346.327" y2="322.139"/><linearGradient gradientUnits="userSpaceOnUse" x1="653" x2="708" xlink:href="#b" y1="210.362" y2="160.362"/><linearGradient gradientUnits="userSpaceOnUse" x1="632" x2="698" xlink:href="#g" y1="146.362" y2="85.362"/><linearGradient id="c"><stop offset="0" stop-color="#008200"/><stop offset="1" stop-color="#00d000"/></linearGradient><linearGradient gradientTransform="matrix(.145 0 0 .145 34.484 222.174)" gradientUnits="userSpaceOnUse" x1="298.986" x2="449.323" xlink:href="#c" y1="540.539" y2="415.539"/><linearGradient gradientTransform="matrix(.187 0 0 .145 9.089 209.533)" gradientUnits="userSpaceOnUse" x1="356.442" x2="484.796" xlink:href="#f" y1="437.499" y2="256.18"/><linearGradient id="g"><stop offset="0" stop-color="#f0a700"/><stop offset="1" stop-color="#ffed00"/></linearGradient><linearGradient id="a"><stop offset="0" stop-color="#fff"/><stop offset="1" stop-color="#fff" stop-opacity="0"/></linearGradient><linearGradient id="d"><stop offset="0" stop-color="#0083cc"/><stop offset="1" stop-color="#24a4cc"/></linearGradient><linearGradient id="b"><stop offset="0" stop-color="#f0eb00"/><stop offset="1" stop-color="#ff0"/></linearGradient><linearGradient id="e"><stop offset="0" stop-color="#c10000"/><stop offset="1" stop-color="#ff433e"/></linearGradient><linearGradient><stop offset="0" stop-color="#ff44ab"/><stop offset="1" stop-color="#f6c"/></linearGradient><linearGradient id="f"><stop offset="0" stop-color="#ffd8c1"/><stop offset="1" stop-color="#ffeded"/></linearGradient></defs><g><path d="M199 10c0-5-4-9-9-9H10c-5 0-9 4-9 9v230c0 5 4 9 9 9h180c5 0 9-4 9-9V10z" fill="#fff" fill-rule="evenodd" stroke="#000" stroke-width="2"/><text style="text-align:center;line-height:125%" x="21.646" y="36" font-size="32" text-anchor="middle" fill="#f00" stroke="#f00" font-family="Nimbus Roman No9 L"><tspan x="21.646" y="36" style="text-align:center;line-height:125%" font-size="32" text-anchor="middle" fill="#f00" stroke="#f00" font-family="Nimbus Roman No9 L">J</tspan></text><path d="M177.315 205.4c0 1.2-2 3.6-4 3.6s-4-1.6-4-4.4c0-4.4 6.4-11.6 8-13.6 1.6 2 8 9.2 8 13.6 0 2.8-2 4.4-4 4.4-2.01 0-4-2.4-4-3.6z" fill="#f00" fill-rule="evenodd" stroke="#f00"/><text style="text-align:center;line-height:125%" x="-176.985" y="-215.752" transform="scale(-1)" font-size="32" text-anchor="middle" fill="#f00" stroke="#f00" font-family="Nimbus Roman No9 L"><tspan x="-176.985" y="-215.752" style="text-align:center;line-height:125%" font-size="32" text-anchor="middle" fill="#f00" stroke="#f00" font-family="Nimbus Roman No9 L">J</tspan></text><path fill="#f99" stroke="#f00" stroke-width="2" stroke-linecap="round" d="M40 27.5h120v195H40z"/><path d="M66.315 210.5c0 3-5 9-10 9s-10-4-10-11c0-11 16-29 20-34 4 5 20 23 20 34 0 7-5 11-10 11-5.024 0-10-6-10-9z" fill="#f00" fill-rule="evenodd" stroke="#f00"/><path d="M134.316 39.5c0-3-5-9-10-9s-10 4-10 11c0 11 16 29 20 34 4-5 20-23 20-34 0-7-5-11-10-11-5.025 0-10 6-10 9z" fill="#f00" fill-rule="evenodd" stroke="#f00"/><path d="M21.316 47.1c0-1.2-2-3.6-4-3.6s-4 1.6-4 4.4c0 4.4 6.4 11.6 8 13.6 1.6-2 8-9.2 8-13.6 0-2.8-2-4.4-4-4.4-2.01 0-4 2.4-4 3.6z" fill="#f00" fill-rule="evenodd" stroke="#f00"/><g><path d="M101.585 83.152c-5.972 3.774-13.47-3.165-17.452 4.88-3.496 4.782 7.53 6.173.57 10.423-4.757 5.125-4.477 7.38-.37 8.008-1.182 5.664-.32 15.17 2.274 20.355-3.21 3.904-.804 2.563 3.553 3.377-1.354 2.154-.576 10.05-5.207 12.488-2.33 7.022-.584 14.643-1.125 21.907 11.275 4.748 24.625 5.287 35.403 2.754 4.74-.99 10.146-1.368 9.19-8.13.285-8.426 1.284-19.517-7.91-23.83-5.372-.752-7.163-4.387-3.04-9.55 3.064-8.357 6.44-4.86 11.145-6.974 4.9-1.31-7.002-4.54-5.43-9.977-1.523-4.254-3.384-9.258-6.43-12.71 7.68-.69 8.502-8.7 2.26-10.333-6.186-4.123-9.837 2.913-14.545-2.375-.78-.013-2.102-.504-2.885-.313z" stroke-width="2"/><path d="M85.235 85.573c0 11.413-7.564 20.676-16.883 20.676-9.32 0-16.884-9.264-16.884-20.677 0-11.414 7.564-20.677 16.884-20.677s16.883 9.263 16.883 20.677z" fill="url(#h)" stroke-width="2" transform="translate(33.694 28.839)"/><path d="M64.845 106.727c-7.05 0-12.725 5.676-12.725 12.725v14.93c9.38 4.648 29.526 4.893 40.62 0v-14.93c0-7.05-5.677-12.725-12.726-12.725h-15.17z" fill="url(#i)" stroke-width="2" transform="translate(33.694 28.839)"/><path d="M83.332 104.78c2.527-4.528 5.054-13.18 19.127-13.09 21.84.64 16.63 23.38 24.45 25.835-4.853 1.578-7.3 2.93-14.54.43.79-5.698-.5-9.878-3.926-12.815-4.27 2.24-20.74 1.175-25.112-.36z" fill="#8d0000" fill-rule="evenodd" stroke-width="1.537"/><g stroke-width="2"><path d="M101.557 114.633c0 1.164-1.364 2.107-3.045 2.107-1.68 0-3.045-.943-3.045-2.107 0-1.163 1.364-2.107 3.045-2.107 1.68 0 3.045.944 3.045 2.107z" fill="#fff"/><path d="M98.997 114.67c0 .974-.78 1.764-1.743 1.764-.962 0-1.743-.79-1.743-1.763 0-.972.782-1.762 1.744-1.762s1.743.79 1.743 1.763z" fill="#04cd04"/><path d="M97.718 114.807c0 .783-.49 1.42-1.092 1.42-.603 0-1.092-.637-1.092-1.42 0-.783.49-1.42 1.092-1.42.603 0 1.092.637 1.092 1.42z"/></g><g stroke-width="2"><path d="M91.468 114.292c0 1.164-1.364 2.107-3.045 2.107-1.68 0-3.045-.944-3.045-2.108 0-1.163 1.364-2.107 3.045-2.107 1.68 0 3.045.944 3.045 2.107z" fill="#fff"/><path d="M88.908 114.33c0 .973-.78 1.763-1.743 1.763-.962 0-1.743-.79-1.743-1.763 0-.973.78-1.763 1.743-1.763.962 0 1.743.79 1.743 1.763z" fill="#0ecf0e"/><path d="M87.63 114.466c0 .783-.49 1.42-1.093 1.42s-1.092-.637-1.092-1.42c0-.783.49-1.42 1.092-1.42.603 0 1.092.637 1.092 1.42z"/></g><path d="M56.8 98.955c1.85 3.622 6.902 1.943 11.73 0-5.325.56-8.994.97-11.73 0z" fill="url(#j)" fill-rule="evenodd" transform="translate(33.694 28.839)"/><path d="M112.636 151.445l1.264.123 1.37 14.513-3.464.467.83-15.102z" fill="#005a00" stroke-width="2"/><path d="M92.693 115.736c-.792 1.287-1.945 3.402-1.78 4.375.163.973 1.65.763 2.44 1.324l.332-.478c-.695-.493-1.783-.008-1.918-.808s.68-2.915 1.422-4.118l-.497-.294z" fill-rule="evenodd"/><path d="M93.987 123.39c-3.804.377-6.134 3.3-8.06 5.42 0 0 6.236-3.457 8.2-3.387-.14-.49.07-1.122-.14-2.034z" fill="#8d0000" fill-rule="evenodd"/><path d="M94.855 123.244c3.382.346 9.846 2.97 10.146 5.46 0 0-7.884-4.218-9.738-3.564-.013-.51-.335-.963-.407-1.896z" fill="#8d0000" fill-rule="evenodd"/><path d="M58.633 108.4c3.633 11.222 8.704 20.945 14.462 29.543l3.686-.112c-5.737-9.207-11.724-19.602-15.15-30.81 0 0-2.036.624-2.997 1.38z" fill="url(#k)" fill-rule="evenodd" transform="translate(33.694 28.839)"/><path d="M56.05 104.88l-.25 10.25 9.314-5.687v1.438l3.687.313-.06-1.937 12.123 5.437-1.25-12.062-10.687 5.438-.25-1.812-3.75-.25v1.937l-8.875-3.062z" fill="url(#l)" fill-rule="evenodd" transform="translate(33.694 28.839)"/><path d="M55.856 64.782l-.537 2.6c7.666 2.23 17.907 1.877 26.76.92-.017-.36-.35-2.52-.35-2.52-8.52.875-19.415.813-25.874-1z" fill="url(#m)" fill-rule="evenodd" transform="translate(33.694 28.839)"/><path d="M68.106 66.345c28.52 3.833 23.48-13.396 1.563-7.625-21.147-7.46-26.23 9.833-1.564 7.625z" fill="url(#n)" fill-rule="evenodd" transform="translate(33.694 28.839)"/><path d="M110.813 56.406a3.72 1.656 0 1 1-7.438 0 3.72 1.656 0 1 1 7.438 0z" transform="translate(-4.637 30.371)" fill="url(#o)" stroke-width="2"/><path d="M68.768 56.294c-1.81 0-3.138.61-3.47 1.375-12.88-2.723-17.582 4.483-9.532 7.56l-.406 2.064c-3 2.79-4.393 6.278-5.72 8.656.75.264 2.22.497 3.563.72-1.067 2.71-1.72 5.695-1.72 8.905 0 4.47 1.185 8.585 3.158 11.97-.85.815-1.71 1.672-2.406 2.436 0 0 1.458-.777 3-1.53 3.028 4.62 7.598 7.652 12.784 7.78l-3.095-.218v.72h-.062c-.915 0-1.827.098-2.687.28l-6.126-2.124-.125 5.53c-2.33 2.305-3.782 5.482-3.782 9.032v14.937c4.958 2.457 12.894 3.612 20.94 3.5.014.02.02.044.032.063l3.688-.094-.156-.25c.495-.032.977-.083 1.47-.125v.25l3.468-.468v-.03c4.135-.58 8.022-1.46 11.158-2.845V119.45c0-7.038-5.654-12.702-12.69-12.72l-.437-4.093-8.032 4.094h-2.844l-.062-.468h-.22c7.927-.053 14.52-6.816 16.285-15.874 3.1.162 5.343-.662 8.5-1.688-5.484-1.72-4.734-13.318-11.22-20.375.02-.002.042.002.062 0-.015-.297-.202-1.574-.28-2.094 10.99-2.384 5.537-10.84-9.69-7.905.086-.14.375-.223.375-.375 0-.914-1.666-1.656-3.72-1.656z" fill="url(#p)" stroke-width="2" transform="translate(33.694 28.839)"/></g></g></svg>