<svg xmlns="http://www.w3.org/2000/svg" width="200" height="250" version="1"><g><path d="M199 10c0-5-4-9-9-9H10c-5 0-9 4-9 9v230c0 5 4 9 9 9h180c5 0 9-4 9-9V10z" fill="#fff" fill-rule="evenodd" stroke="#000" stroke-width="2"/><text style="text-align:center;line-height:125%" x="21.22" y="40" font-size="32" text-anchor="middle" fill="#f00" stroke="#f00" font-family="Nimbus Roman No9 L"><tspan x="21.22" y="40" style="text-align:center;line-height:125%" font-size="32" text-anchor="middle" fill="#f00" stroke="#f00" font-family="Nimbus Roman No9 L">2</tspan></text><text style="text-align:center;line-height:125%" x="-177.411" y="-213.752" transform="scale(-1)" font-size="32" text-anchor="middle" fill="#f00" stroke="#f00" font-family="Nimbus Roman No9 L"><tspan x="-177.411" y="-213.752" style="text-align:center;line-height:125%" font-size="32" text-anchor="middle" fill="#f00" stroke="#f00" font-family="Nimbus Roman No9 L">2</tspan></text><path d="M81.5 46.5l18-22 18 21-18 24-18-23z" fill="#f00" fill-rule="evenodd" stroke="#f00"/><path d="M81.5 206l18-22 18 21-18 24-18-23z" fill="#f00" fill-rule="evenodd" stroke="#f00"/><path d="M170.115 199.8l7.2-8.8 7.2 8.4-7.2 9.6-7.2-9.2z" fill="#f00" fill-rule="evenodd" stroke="#f00"/><path d="M14.116 52.3l7.2-8.8 7.2 8.4-7.2 9.6-7.2-9.2z" fill="#f00" fill-rule="evenodd" stroke="#f00"/></g></svg>