<svg xmlns="http://www.w3.org/2000/svg" xmlns:xlink="http://www.w3.org/1999/xlink" width="200" height="250" version="1"><defs><linearGradient gradientTransform="matrix(.187 0 0 .145 -46.318 212.048)" gradientUnits="userSpaceOnUse" id="p" x1="688.304" x2="361.498" xlink:href="#a" y1="-31.93" y2="346.667"/><linearGradient gradientTransform="translate(-13.307 182.412)" gradientUnits="userSpaceOnUse" id="o" x1="36.313" x2="43.598" xlink:href="#b" y1="116.761" y2="110.928"/><linearGradient gradientTransform="translate(-16.627 179.294)" gradientUnits="userSpaceOnUse" id="n" x1="58.248" x2="61.035" xlink:href="#b" y1="104.916" y2="103.148"/><linearGradient gradientTransform="translate(-16.627 179.294)" gradientUnits="userSpaceOnUse" id="m" x1="32.969" x2="60.723" xlink:href="#b" y1="63.942" y2="56.605"/><linearGradient gradientTransform="translate(-16.627 179.294)" gradientUnits="userSpaceOnUse" id="l" x1="32.464" x2="60" xlink:href="#c" y1="58.34" y2="51.181"/><linearGradient gradientTransform="matrix(.145 0 0 .145 -23.527 225.383)" gradientUnits="userSpaceOnUse" id="k" x1="294.246" x2="312.092" xlink:href="#d" y1="346.327" y2="322.139"/><linearGradient id="e"><stop offset="0" stop-color="#008200"/><stop offset="1" stop-color="#00d000"/></linearGradient><linearGradient gradientTransform="matrix(.145 0 0 .145 -23.925 222.69)" gradientUnits="userSpaceOnUse" id="j" x1="298.986" x2="449.323" xlink:href="#e" y1="540.539" y2="415.539"/><linearGradient gradientTransform="translate(-16.627 179.294)" gradientUnits="userSpaceOnUse" id="i" x1="25.75" x2="32.217" xlink:href="#b" y1="103.131" y2="101.982"/><linearGradient gradientTransform="matrix(.187 0 0 .145 -46.32 212.049)" gradientUnits="userSpaceOnUse" id="h" x1="356.442" x2="484.796" xlink:href="#f" y1="437.499" y2="256.18"/><linearGradient gradientTransform="matrix(.187 0 0 .145 -49.62 316.673)" gradientUnits="userSpaceOnUse" x1="688.304" x2="361.498" xlink:href="#a" y1="-31.93" y2="346.667"/><linearGradient gradientTransform="translate(-16.307 286.413)" gradientUnits="userSpaceOnUse" x1="36.313" x2="43.598" xlink:href="#b" y1="116.761" y2="110.928"/><linearGradient gradientTransform="translate(-19.627 283.294)" gradientUnits="userSpaceOnUse" x1="58.248" x2="61.035" xlink:href="#b" y1="104.916" y2="103.148"/><linearGradient gradientTransform="translate(-19.627 283.294)" gradientUnits="userSpaceOnUse" x1="32.969" x2="60.723" xlink:href="#b" y1="63.942" y2="56.605"/><linearGradient gradientTransform="translate(-19.627 283.294)" gradientUnits="userSpaceOnUse" x1="32.464" x2="60" xlink:href="#c" y1="58.34" y2="51.181"/><linearGradient gradientTransform="matrix(.145 0 0 .145 -26.527 329.383)" gradientUnits="userSpaceOnUse" x1="294.246" x2="312.092" xlink:href="#d" y1="346.327" y2="322.139"/><linearGradient gradientTransform="matrix(.145 0 0 .145 -26.925 326.69)" gradientUnits="userSpaceOnUse" x1="298.986" x2="449.323" xlink:href="#g" y1="540.539" y2="415.539"/><linearGradient gradientTransform="translate(-19.627 283.294)" gradientUnits="userSpaceOnUse" x1="25.75" x2="32.217" xlink:href="#b" y1="103.131" y2="101.982"/><linearGradient gradientTransform="matrix(.187 0 0 .145 -49.32 316.049)" gradientUnits="userSpaceOnUse" x1="356.442" x2="484.796" xlink:href="#f" y1="437.499" y2="256.18"/><linearGradient id="c"><stop offset="0" stop-color="#f0a700"/><stop offset="1" stop-color="#ffed00"/></linearGradient><linearGradient id="a"><stop offset="0" stop-color="#fff"/><stop offset="1" stop-color="#fff" stop-opacity="0"/></linearGradient><linearGradient><stop offset="0" stop-color="#0083cc"/><stop offset="1" stop-color="#24a4cc"/></linearGradient><linearGradient id="b"><stop offset="0" stop-color="#f0eb00"/><stop offset="1" stop-color="#ff0"/></linearGradient><linearGradient id="d"><stop offset="0" stop-color="#c10000"/><stop offset="1" stop-color="#ff433e"/></linearGradient><linearGradient id="g"><stop offset="0" stop-color="#ff44ab"/><stop offset="1" stop-color="#f6c"/></linearGradient><linearGradient id="f"><stop offset="0" stop-color="#ffd8c1"/><stop offset="1" stop-color="#ffeded"/></linearGradient></defs><g><path d="M199 10c0-5-4-9-9-9H10c-5 0-9 4-9 9v230c0 5 4 9 9 9h180c5 0 9-4 9-9V10z" fill="#fff" fill-rule="evenodd" stroke="#000" stroke-width="2"/><text style="text-align:center;line-height:125%" x="21.646" y="38" font-size="32" text-anchor="middle" fill="#f00" stroke="#f00" font-family="Nimbus Roman No9 L"><tspan x="21.646" y="38" style="text-align:center;line-height:125%" font-size="32" text-anchor="middle" fill="#f00" stroke="#f00" font-family="Nimbus Roman No9 L">K</tspan></text><path d="M177.315 205.4c0 1.2-2 3.6-4 3.6s-4-1.6-4-4.4c0-4.4 6.4-11.6 8-13.6 1.6 2 8 9.2 8 13.6 0 2.8-2 4.4-4 4.4-2.01 0-4-2.4-4-3.6z" fill="#f00" fill-rule="evenodd" stroke="#f00"/><text style="text-align:center;line-height:125%" x="-176.985" y="-213.752" transform="scale(-1)" font-size="32" text-anchor="middle" fill="#f00" stroke="#f00" font-family="Nimbus Roman No9 L"><tspan x="-176.985" y="-213.752" style="text-align:center;line-height:125%" font-size="32" text-anchor="middle" fill="#f00" stroke="#f00" font-family="Nimbus Roman No9 L">K</tspan></text><path fill="#f99" stroke="#f00" stroke-width="2" stroke-linecap="round" d="M40 27.5h120v195H40z"/><path d="M66.315 210.5c0 3-5 9-10 9s-10-4-10-11c0-11 16-29 20-34 4 5 20 23 20 34 0 7-5 11-10 11-5.024 0-10-6-10-9z" fill="#f00" fill-rule="evenodd" stroke="#f00"/><path d="M134.316 39.5c0-3-5-9-10-9s-10 4-10 11c0 11 16 29 20 34 4-5 20-23 20-34 0-7-5-11-10-11-5.025 0-10 6-10 9z" fill="#f00" fill-rule="evenodd" stroke="#f00"/><path d="M21.316 47.1c0-1.2-2-3.6-4-3.6s-4 1.6-4 4.4c0 4.4 6.4 11.6 8 13.6 1.6-2 8-9.2 8-13.6 0-2.8-2-4.4-4-4.4-2.01 0-4 2.4-4 3.6z" fill="#f00" fill-rule="evenodd" stroke="#f00"/><g><path d="M97.12 85.34c-1.983-1.623-3.417-2.632-5.777-5.12-1.767 7.185-4.003 6.155-7.03 3.61-3.018-3.034-2.78 11.105-8.603-1.835-1.678.23 1.738 10.88 2.202 15.02 3.47 4.894-2.012 11.096-.276 14.597 5.738-.376.64 6.226 2.358 9.76.374 4.68 2.022 8.457 2.66 12.734 9.698 4.432-8.42 7.463-4.22 11.013.795 3.265-1.56 9.17-.56 13.58-.713 6-.627 11.414 6.75 11.688 12.783 2.48 25.82 2.393 37.88-2.344.135-6.988-.095-14.907-.22-21.344 3.166-3.864-7.895-6.498-10.38-9.982 3.528-4.32 2.31-12.724 9.466-13.327.76-6.258-1.414-13.958-4.742-19.846 1.07-7.66 2.343-15.295 3.063-23-7.17 14.794-4.283-3.014-7.45 4.013-2.052 2.307-3.3-.73-4.605-.61-1.297-5.818-3.648 7.244-5.383-3.653-2.245 9.14-2.867-6.302-4.454 3.072l-.677 1.973z" stroke-width="2"/><path d="M44.252 259.397c0 11.413-7.564 20.676-16.883 20.676-9.32 0-16.885-9.263-16.885-20.676 0-11.413 7.564-20.676 16.884-20.676 9.318 0 16.882 9.264 16.882 20.677z" fill="url(#h)" stroke-width="2" transform="translate(71.25 -140.25)"/><path d="M10.873 285.544l-2.045-1.427 6.78-5.53 1.515 3.207s-5.92 4.02-6.25 3.75z" fill="url(#i)" fill-rule="evenodd" transform="translate(71.25 -140.25)"/><path d="M21.343 279.21c-7.05 0-12.725 5.677-12.725 12.726v14.93c9.38 4.65 29.527 4.893 40.62 0v-14.93c0-7.05-5.676-12.725-12.725-12.725h-15.17z" fill="url(#j)" stroke-width="2" transform="translate(71.25 -140.25)"/><path d="M79.08 109.845s1.698-14.374 20.612-14.41c19.976.82 19.997 26.496 19.997 26.496-4.854 1.578-3.506 3.26-10.748.76.79-5.698-.5-9.878-3.925-12.814-4.27 2.238-21.564 1.504-25.937-.03z" fill="#8d0000" fill-rule="evenodd" stroke-width="1.537"/><g stroke-width="2"><path d="M98.126 119.37c0 1.163-1.364 2.106-3.045 2.106-1.68 0-3.044-.943-3.044-2.107 0-1.164 1.364-2.108 3.045-2.108 1.682 0 3.046.944 3.046 2.107z" fill="#fff"/><path d="M95.566 119.407c0 .973-.78 1.763-1.743 1.763-.962 0-1.743-.79-1.743-1.763 0-.973.78-1.763 1.743-1.763.962 0 1.743.79 1.743 1.763z" fill="#04cd04"/><path d="M94.287 119.543c0 .783-.49 1.42-1.092 1.42-.603 0-1.092-.637-1.092-1.42 0-.783.49-1.42 1.092-1.42.603 0 1.092.637 1.092 1.42z"/></g><g stroke-width="2"><path d="M88.037 119.028c0 1.164-1.364 2.107-3.045 2.107-1.68 0-3.045-.943-3.045-2.107 0-1.163 1.364-2.107 3.045-2.107 1.68 0 3.045.945 3.045 2.108z" fill="#fff"/><path d="M85.477 119.066c0 .973-.78 1.763-1.743 1.763-.962 0-1.743-.79-1.743-1.764 0-.973.782-1.763 1.744-1.763s1.743.79 1.743 1.763z" fill="#04cd04"/><path d="M84.198 119.202c0 .783-.49 1.42-1.092 1.42-.603 0-1.092-.637-1.092-1.42 0-.783.49-1.42 1.092-1.42.603 0 1.092.637 1.092 1.42z"/></g><path d="M15.818 272.78c2.92.138 7.302.335 11.728 0-4.654-1.72-7.92-2.247-11.728 0z" fill="url(#k)" fill-rule="evenodd" transform="translate(71.25 -140.25)"/><path d="M106.69 154.84l1.264.124 1.372 14.512-3.465.25.83-14.886z" fill="#005a00" stroke-width="2"/><path d="M88.73 120.74c-.792 1.286-1.945 3.4-1.78 4.374.163.972 1.65.762 2.44 1.323l.332-.478c-.695-.494-1.783-.01-1.918-.81-.135-.798.68-2.913 1.422-4.117l-.496-.294z" fill-rule="evenodd"/><path d="M90.465 133.323c1.104 2.336-.668 2.358-1.458 2.73-.614-.46-1.93-1.83-2.337-2.785-.13 5.307 1.724 8.204 3.068 9.67 1.343 1.465 9.282 2.564 13.557 0 4.275-2.565 13.24-11.337 8.362-18.518-.668.464-1.884.363-2.744.197.122 1.588-2.02 6.19-5.927 7.9-3.908 1.71-6.723 2.123-7.752 3.656-2.01.06-3.134-.75-2.222-2.832-.49.162-2.006-.02-2.547-.017z" fill="#8d0000" fill-rule="evenodd"/><path d="M91.384 127.96s-7.085 1.823-7.505 3.086c-.422 1.262 1.05 2.735 1.05 2.735s4.63-3.857 6.595-3.787c-.14-.49.07-1.122-.14-2.034z" fill="#8d0000" fill-rule="evenodd"/><path d="M91.923 127.98s7.408.115 8.188 1.194c.78 1.08-.185 2.925-.185 2.925s-5.742-2.88-7.595-2.224c-.013-.51-.335-.963-.407-1.896z" fill="#8d0000" fill-rule="evenodd"/><path d="M9.447 232.678l2.588-6.604 5.088 6.97 3.574-8.738 4.457 8.548s3.13-8.84 3.13-8.164c0 .677 3.296 9.225 3.296 9.225l3.75-8.194 2.49 8.107 4.303-7.033 1.25 6.25v5s-27.5 1.25-30 0-4.013-5.222-3.926-5.366z" fill="url(#l)" fill-rule="evenodd" transform="translate(71.25 -140.25)"/><path d="M10.155 244.224c10.076 2.387 22.627 2.475 33.146 0l2.387-16.528-4.596 6.54-2.827-7.424-3.536 7.248-3.624-8.31-3.27 8.22-3.713-8.042-3.27 8.75-4.86-7.6-3.625 7.866-5.57-6.895s3.095 15.82 3.36 16.174z" fill="url(#m)" fill-rule="evenodd" transform="translate(71.25 -140.25)"/><path d="M40.65 278.784c-.673.51-2.918 2.387-2.918 2.387l9.39 6.874 2.5-2.5-8.973-6.76z" fill="url(#n)" fill-rule="evenodd" transform="translate(71.25 -140.25)"/><path d="M97.783 155.602l-6.942-7.947h17.406l-10.463 7.947z" fill="#ff8900" fill-rule="evenodd"/><path d="M24.258 290.013l-2.754 3.397 3.94 2.753-4.28 3.064 2.853 2.832 2.893-4.925 2.99 4.823 3.043-3.295-5-2.5 4.723-3.22-3.12-2.753L27 295.178l-2.74-5.165z" fill="url(#o)" fill-rule="evenodd" transform="translate(71.25 -140.25)"/><path d="M20.688 224.292l-2.532 6.188L16 227.073l-1.25 2.72-2.72-3.72-2.217 5.688-3-3.718s3.078 15.834 3.343 16.188c.01.002.022-.003.03 0-1.944 3.095-2.342 5.875-2.342 5.875.867.304 2.506.557 4.187.78-.965 2.604-1.53 5.457-1.53 8.5 0 4.218 1.04 8.136 2.813 11.407-.24.174-.635.34-.688.5-.42 1.263 1.063 2.75 1.063 2.75s.787-.562 1.187-.875c.2.27.353.587.563.844.003 2.652.517 4.605 1.187 6.126-.08.03-.172.03-.25.062l-.75-1.625-6.78 5.532 1.842 1.312c-1.184 1.934-2.062 4.088-2.062 6.53v14.908c6.012 2.98 16.36 3.926 26 3.093v.032l3.438-.25v-.032c4.134-.578 8.052-1.46 11.187-2.843v-14.907c0-1.777-.378-3.465-1.03-5l1.405-1.406-8.97-6.75c-.236.18-.57.466-1.03.844-.94-.235-1.927-.392-2.938-.406 2.44-2.535 4.71-5.75 5.063-9.125.922-1.85 1.62-3.858 2.03-6.032 1.256-.272 2.13-1.084 4.657-1.906 0 0-.04-10.27-5.124-18.03l2.374-16.44-2.624 3.75-.938-4.655-2.375 3.906-1.5-3.875-1.594 3.25-1.312-4.343-2.188 4.78-2.062-4.75-1.282 3.22c-.76-2.064-1.53-3.968-1.53-4.282 0-.464-1.232 3.027-2.157 5.594l-2-4.375-1.094 2.875-2.343-4.5z" fill="url(#p)" stroke-width="2" transform="translate(71.25 -140.25)"/></g></g></svg>