<svg xmlns="http://www.w3.org/2000/svg" width="200" height="250" version="1"><g><path d="M199 10c0-5-4-9-9-9H10c-5 0-9 4-9 9v230c0 5 4 9 9 9h180c5 0 9-4 9-9V10z" fill="#fff" fill-rule="evenodd" stroke="#000" stroke-width="2"/><text style="text-align:center;line-height:125%" x="21.22" y="40" font-size="32" text-anchor="middle" fill="#f00" stroke="#f00" font-family="Nimbus Roman No9 L"><tspan x="21.22" y="40" style="text-align:center;line-height:125%" font-size="32" text-anchor="middle" stroke="#000" font-family="Nimbus Roman No9 L">5</tspan></text><text style="text-align:center;line-height:125%" x="-177.411" y="-213.752" transform="scale(-1)" font-size="32" text-anchor="middle" fill="#f00" stroke="#f00" font-family="Nimbus Roman No9 L"><tspan x="-177.411" y="-213.752" style="text-align:center;line-height:125%" font-size="32" text-anchor="middle" stroke="#000" font-family="Nimbus Roman No9 L">5</tspan></text><path d="M177.115 209.2c-3.2-4.8-7.4-7.6-7.4-11.6 0-3.6 2-4.4 3.2-4.4 1.6 0 2.8.8 2.8 3.6 0 .8.8.8.8 0 0-4-.8-4-1.6-6h4.4c-.8 2-1.6 2-1.6 6 0 .8.8.8.8 0 0-3.2 1.2-3.6 2.8-3.6 1.2 0 3.6.8 3.6 4.4 0 4.052-4.6 6.8-7.8 11.6z" fill-rule="evenodd" stroke="#000"/><path d="M21.116 43.3c-3.2 4.8-7.4 7.6-7.4 11.6 0 3.6 2 4.4 3.2 4.4 1.6 0 2.8-.8 2.8-3.6 0-.8.8-.8.8 0 0 4-.8 4-1.6 6h4.4c-.8-2-1.6-2-1.6-6 0-.8.8-.8.8 0 0 3.2 1.2 3.6 2.8 3.6 1.2 0 3.6-.8 3.6-4.4 0-4.052-4.6-6.8-7.8-11.6z" fill-rule="evenodd" stroke="#000"/><path d="M54 24c-8 12-18.5 19-18.5 29 0 9 5 11 8 11 4 0 7-2 7-9 0-2 2-2 2 0 0 10-2 10-4 15h11c-2-5-4-5-4-15 0-2 2-2 2 0 0 8 3 9 7 9 3 0 9-2 9-11C73.5 42.87 62 36 54 24z" fill-rule="evenodd" stroke="#000"/><path d="M143.5 24c-8 12-18.5 19-18.5 29 0 9 5 11 8 11 4 0 7-2 7-9 0-2 2-2 2 0 0 10-2 10-4 15h11c-2-5-4-5-4-15 0-2 2-2 2 0 0 8 3 9 7 9 3 0 9-2 9-11 0-10.13-11.5-17-19.5-29z" fill-rule="evenodd" stroke="#000"/><path d="M54 229.5c-8-12-18.5-19-18.5-29 0-9 5-11 8-11 4 0 7 2 7 9 0 2 2 2 2 0 0-10-2-10-4-15h11c-2 5-4 5-4 15 0 2 2 2 2 0 0-8 3-9 7-9 3 0 9 2 9 11 0 10.13-11.5 17-19.5 29z" fill-rule="evenodd" stroke="#000"/><path d="M143.5 229.5c-8-12-18.5-19-18.5-29 0-9 5-11 8-11 4 0 7 2 7 9 0 2 2 2 2 0 0-10-2-10-4-15h11c-2 5-4 5-4 15 0 2 2 2 2 0 0-8 3-9 7-9 3 0 9 2 9 11 0 10.13-11.5 17-19.5 29z" fill-rule="evenodd" stroke="#000"/><path d="M98.75 103.75c-8 12-18.5 19-18.5 29 0 9 5 11 8 11 4 0 7-2 7-9 0-2 2-2 2 0 0 10-2 10-4 15h11c-2-5-4-5-4-15 0-2 2-2 2 0 0 8 3 9 7 9 3 0 9-2 9-11 0-10.13-11.5-17-19.5-29z" fill-rule="evenodd" stroke="#000"/></g></svg>