<svg xmlns="http://www.w3.org/2000/svg" xmlns:xlink="http://www.w3.org/1999/xlink" width="200" height="250" version="1"><defs><linearGradient gradientTransform="matrix(.187 0 0 .145 74.296 109.487)" gradientUnits="userSpaceOnUse" x1="652.295" x2="410.906" xlink:href="#a" y1="77.395" y2="344.417"/><linearGradient gradientUnits="userSpaceOnUse" x1="104.75" x2="109.5" xlink:href="#b" y1="57.469" y2="55.781"/><linearGradient gradientTransform="translate(43.646 73.72)" gradientUnits="userSpaceOnUse" x1="93.5" x2="117.139" xlink:href="#c" y1="62.938" y2="57.702"/><linearGradient gradientTransform="translate(40.119 73.845)" gradientUnits="userSpaceOnUse" x1="103.563" x2="111.883" xlink:href="#b" y1="65.109" y2="62.671"/><linearGradient id="d"><stop offset="0" stop-color="#008200"/><stop offset="1" stop-color="#00d000"/></linearGradient><linearGradient gradientTransform="translate(39.501 74.756)" gradientUnits="userSpaceOnUse" x1="98.818" x2="112.891" xlink:href="#d" y1="108.764" y2="103.334"/><linearGradient gradientTransform="translate(43.646 73.72)" gradientUnits="userSpaceOnUse" x1="101.393" x2="105.545" xlink:href="#b" y1="124.161" y2="120.973"/><linearGradient gradientTransform="scale(1.363 .734)" gradientUnits="userSpaceOnUse" x1="106.41" x2="109.256" xlink:href="#e" y1="231.758" y2="228.153"/><linearGradient gradientTransform="scale(1.23 .813)" gradientUnits="userSpaceOnUse" x1="108.991" x2="112.703" xlink:href="#e" y1="209.416" y2="205.041"/><linearGradient gradientTransform="matrix(.145 0 0 .145 97.094 122.808)" gradientUnits="userSpaceOnUse" x1="294.246" x2="312.092" xlink:href="#f" y1="346.327" y2="322.139"/><linearGradient gradientTransform="scale(1.255 .797)" gradientUnits="userSpaceOnUse" x1="111.392" x2="136.652" xlink:href="#e" y1="198.455" y2="177.032"/><linearGradient gradientTransform="matrix(.145 0 0 .145 99.215 121.455)" gradientUnits="userSpaceOnUse" x1="298.986" x2="449.323" xlink:href="#c" y1="540.539" y2="415.539"/><linearGradient gradientTransform="matrix(.187 0 0 .145 74.301 109.475)" gradientUnits="userSpaceOnUse" x1="356.442" x2="484.796" xlink:href="#g" y1="437.499" y2="256.18"/><linearGradient gradientTransform="matrix(.187 0 0 .145 -5.339 38.237)" gradientUnits="userSpaceOnUse" x1="652.295" x2="410.906" xlink:href="#a" y1="77.395" y2="344.417"/><linearGradient gradientUnits="userSpaceOnUse" x1="104.75" x2="109.5" xlink:href="#b" y1="57.469" y2="55.781"/><linearGradient gradientTransform="translate(-35.991 2.47)" gradientUnits="userSpaceOnUse" x1="93.5" x2="117.139" xlink:href="#h" y1="62.938" y2="57.702"/><linearGradient gradientTransform="translate(-39.518 2.595)" gradientUnits="userSpaceOnUse" x1="103.563" x2="111.883" xlink:href="#b" y1="65.109" y2="62.671"/><linearGradient gradientTransform="translate(-40.136 3.506)" gradientUnits="userSpaceOnUse" x1="98.818" x2="112.891" xlink:href="#c" y1="108.764" y2="103.334"/><linearGradient gradientTransform="translate(-35.991 2.47)" gradientUnits="userSpaceOnUse" x1="101.393" x2="105.545" xlink:href="#b" y1="124.161" y2="120.973"/><linearGradient gradientTransform="matrix(.145 0 0 .145 17.456 51.558)" gradientUnits="userSpaceOnUse" x1="294.246" x2="312.092" xlink:href="#f" y1="346.327" y2="322.139"/><linearGradient gradientTransform="scale(1.14 .877)" gradientUnits="userSpaceOnUse" x1="51.852" x2="74.326" xlink:href="#h" y1="154.546" y2="129.502"/><linearGradient gradientTransform="matrix(.187 0 0 .145 -5.337 38.225)" gradientUnits="userSpaceOnUse" x1="356.442" x2="484.796" xlink:href="#g" y1="437.499" y2="256.18"/><linearGradient id="e"><stop offset="0" stop-color="#f0a700"/><stop offset="1" stop-color="#ffed00"/></linearGradient><linearGradient id="a"><stop offset="0" stop-color="#fff"/><stop offset="1" stop-color="#fff" stop-opacity="0"/></linearGradient><linearGradient id="c"><stop offset="0" stop-color="#0083cc"/><stop offset="1" stop-color="#24a4cc"/></linearGradient><linearGradient id="b"><stop offset="0" stop-color="#f0eb00"/><stop offset="1" stop-color="#ff0"/></linearGradient><linearGradient id="f"><stop offset="0" stop-color="#c10000"/><stop offset="1" stop-color="#ff433e"/></linearGradient><linearGradient id="h"><stop offset="0" stop-color="#ff44ab"/><stop offset="1" stop-color="#f6c"/></linearGradient><linearGradient id="g"><stop offset="0" stop-color="#ffd8c1"/><stop offset="1" stop-color="#ffeded"/></linearGradient><linearGradient xlink:href="#g" id="i" gradientUnits="userSpaceOnUse" gradientTransform="matrix(.187 0 0 .145 74.301 109.475)" x1="356.442" y1="437.499" x2="484.796" y2="256.18"/><linearGradient xlink:href="#c" id="j" gradientUnits="userSpaceOnUse" gradientTransform="matrix(.145 0 0 .145 99.215 121.455)" x1="298.986" y1="540.539" x2="449.323" y2="415.539"/><linearGradient xlink:href="#e" id="k" gradientUnits="userSpaceOnUse" gradientTransform="scale(1.255 .797)" x1="111.392" y1="198.455" x2="136.652" y2="177.032"/><linearGradient xlink:href="#f" id="l" gradientUnits="userSpaceOnUse" gradientTransform="matrix(.145 0 0 .145 97.094 122.808)" x1="294.246" y1="346.327" x2="312.092" y2="322.139"/><linearGradient xlink:href="#e" id="m" gradientUnits="userSpaceOnUse" gradientTransform="scale(1.23 .813)" x1="108.991" y1="209.416" x2="112.703" y2="205.041"/><linearGradient xlink:href="#e" id="n" gradientUnits="userSpaceOnUse" gradientTransform="scale(1.363 .734)" x1="106.41" y1="231.758" x2="109.256" y2="228.153"/><linearGradient xlink:href="#b" id="o" gradientUnits="userSpaceOnUse" gradientTransform="translate(43.646 73.72)" x1="101.393" y1="124.161" x2="105.545" y2="120.973"/><linearGradient xlink:href="#d" id="p" gradientUnits="userSpaceOnUse" gradientTransform="translate(39.501 74.756)" x1="98.818" y1="108.764" x2="112.891" y2="103.334"/><linearGradient xlink:href="#b" id="q" gradientUnits="userSpaceOnUse" gradientTransform="translate(40.119 73.845)" x1="103.563" y1="65.109" x2="111.883" y2="62.671"/><linearGradient xlink:href="#c" id="r" gradientUnits="userSpaceOnUse" gradientTransform="translate(43.646 73.72)" x1="93.5" y1="62.938" x2="117.139" y2="57.702"/><linearGradient xlink:href="#b" id="s" gradientUnits="userSpaceOnUse" x1="104.75" y1="57.469" x2="109.5" y2="55.781"/><linearGradient xlink:href="#a" id="t" gradientUnits="userSpaceOnUse" gradientTransform="matrix(.187 0 0 .145 74.296 109.487)" x1="652.295" y1="77.395" x2="410.906" y2="344.417"/></defs><g><path d="M199 10c0-5-4-9-9-9H10c-5 0-9 4-9 9v230c0 5 4 9 9 9h180c5 0 9-4 9-9V10z" fill="#fff" fill-rule="evenodd" stroke="#000" stroke-width="2"/><text style="text-align:center;line-height:125%" x="21.646" y="38" font-size="32" text-anchor="middle" fill="#f00" stroke="#f00" font-family="Nimbus Roman No9 L"><tspan x="21.646" y="38" style="text-align:center;line-height:125%" font-size="32" text-anchor="middle" fill="#f00" stroke="#f00" font-family="Nimbus Roman No9 L">J</tspan></text><text style="text-align:center;line-height:125%" x="-176.985" y="-213.752" transform="scale(-1)" font-size="32" text-anchor="middle" fill="#f00" stroke="#f00" font-family="Nimbus Roman No9 L"><tspan x="-176.985" y="-213.752" style="text-align:center;line-height:125%" font-size="32" text-anchor="middle" fill="#f00" stroke="#f00" font-family="Nimbus Roman No9 L">J</tspan></text><path fill="#f99" stroke="#f00" stroke-width="2" stroke-linecap="round" d="M40 27.5h120v195H40z"/><path d="M116.316 52.5l18-22 18 21-18 24-18-23z" fill="#f00" fill-rule="evenodd" stroke="#f00"/><path d="M48.315 196.5l18-22 18 21-18 24-18-23z" fill="#f00" fill-rule="evenodd" stroke="#f00"/><path d="M170.115 199.8l7.2-8.8 7.2 8.4-7.2 9.6-7.2-9.2z" fill="#f00" fill-rule="evenodd" stroke="#f00"/><path d="M14.116 52.3l7.2-8.8 7.2 8.4-7.2 9.6-7.2-9.2z" fill="#f00" fill-rule="evenodd" stroke="#f00"/><g><path d="M97.97 80.808C92 84.582 84.5 77.643 80.52 85.688c-3.495 4.78 7.53 6.173.57 10.423-4.756 5.125-4.477 7.38-.37 8.01-1.182 5.662-.32 15.17 2.275 20.354-3.212 3.903-.805 2.562 3.552 3.376-1.353 2.155-.576 10.05-5.207 12.49-2.33 7.02-.583 14.64-1.125 21.905 11.275 4.75 24.625 5.288 35.403 2.755 4.738-.99 10.145-1.368 9.19-8.13.284-8.426 1.283-19.518-7.91-23.83-5.372-.753-7.164-4.388-3.04-9.55 3.063-8.358 6.44-4.86 11.144-6.974 4.9-1.312-7-4.54-5.43-9.978-1.522-4.254-3.383-9.257-6.43-12.71 7.68-.69 8.502-8.698 2.26-10.333-6.186-4.122-9.836 2.914-14.544-2.374-.78-.013-2.102-.503-2.885-.312z" stroke-width="2"/><path d="M164.873 156.823c0 11.413-7.564 20.676-16.884 20.676s-16.884-9.264-16.884-20.677c0-11.414 7.563-20.677 16.883-20.677s16.883 9.263 16.883 20.677z" fill="url(#i)" stroke-width="2" transform="translate(-49.558 -44.756)"/><path d="M144.482 177.977c-7.05 0-12.724 5.675-12.724 12.725v14.93c9.38 4.648 29.526 4.893 40.62 0V190.7c0-7.05-5.677-12.725-12.726-12.725h-15.17z" fill="url(#j)" stroke-width="2" transform="translate(-49.558 -44.756)"/><path d="M129.275 147.19c2.527-4.527 5.055-13.18 19.128-13.09 21.84.64 16.63 23.382 24.45 25.836-4.853 1.578-7.3 2.93-14.54.43.79-5.7-.5-9.878-3.926-12.815-4.27 2.24-20.74 1.176-25.112-.36z" fill="url(#k)" fill-rule="evenodd" stroke-width="1.537" transform="translate(-49.558 -44.756)"/><g stroke-width="2"><path d="M97.942 112.29c0 1.163-1.364 2.106-3.045 2.106-1.68 0-3.045-.943-3.045-2.107 0-1.164 1.364-2.108 3.045-2.108 1.68 0 3.045.944 3.045 2.107z" fill="#fff"/><path d="M95.382 112.327c0 .973-.78 1.763-1.743 1.763-.963 0-1.744-.79-1.744-1.763 0-.973.78-1.763 1.743-1.763.96 0 1.742.79 1.742 1.763z" fill="#0f90cc"/><path d="M94.103 112.463c0 .783-.49 1.42-1.092 1.42-.602 0-1.09-.637-1.09-1.42 0-.783.488-1.42 1.09-1.42.604 0 1.093.637 1.093 1.42z"/></g><g stroke-width="2"><path d="M87.854 111.948c0 1.164-1.364 2.107-3.045 2.107-1.682 0-3.046-.943-3.046-2.107 0-1.163 1.364-2.107 3.045-2.107 1.68 0 3.044.945 3.044 2.108z" fill="#fff"/><path d="M85.294 111.986c0 .973-.78 1.763-1.743 1.763-.96 0-1.742-.79-1.742-1.764 0-.973.78-1.763 1.743-1.763.963 0 1.744.79 1.744 1.763z" fill="#0f90cc"/><path d="M84.015 112.122c0 .783-.49 1.42-1.092 1.42-.603 0-1.092-.637-1.092-1.42 0-.783.49-1.42 1.093-1.42s1.092.637 1.092 1.42z"/></g><path d="M136.44 170.205c1.847 3.622 6.9 1.943 11.726 0-5.323.56-8.992.97-11.727 0z" fill="url(#l)" fill-rule="evenodd" transform="translate(-49.558 -44.756)"/><path d="M109.022 149.1l1.264.123 1.37 14.513-3.464.466.83-15.102z" fill="#004cb0" stroke-width="2"/><path d="M89.078 113.39c-.792 1.288-1.945 3.403-1.78 4.376.164.972 1.652.762 2.442 1.323l.33-.48c-.694-.492-1.782-.007-1.917-.807s.68-2.915 1.42-4.118l-.495-.294z" fill-rule="evenodd"/><path d="M139.93 165.8c-3.803.377-6.133 3.3-8.06 5.42 0 0 6.236-3.456 8.2-3.386-.14-.49.07-1.122-.14-2.034z" fill="url(#m)" fill-rule="evenodd" transform="translate(-49.558 -44.756)"/><path d="M140.8 165.655c3.38.346 9.844 2.97 10.145 5.46 0 0-7.886-4.218-9.74-3.564-.012-.51-.334-.962-.406-1.895z" fill="url(#n)" fill-rule="evenodd" transform="translate(-49.558 -44.756)"/><path d="M138.27 179.65c3.634 11.222 8.705 20.945 14.463 29.543l3.685-.112c-5.737-9.207-11.725-19.602-15.15-30.81 0 0-2.036.624-2.998 1.38z" fill="url(#o)" fill-rule="evenodd" transform="translate(-49.558 -44.756)"/><path d="M135.688 176.13l-.25 10.25 9.313-5.687v1.438l3.688.313-.062-1.937 12.125 5.437-1.25-12.062-10.687 5.438-.25-1.812-3.75-.25v1.937l-8.875-3.062z" fill="url(#p)" fill-rule="evenodd" transform="translate(-49.558 -44.756)"/><path d="M135.494 136.032l-.537 2.6c7.666 2.23 17.907 1.877 26.762.92-.02-.36-.35-2.52-.35-2.52-8.522.875-19.418.813-25.876-1z" fill="url(#q)" fill-rule="evenodd" transform="translate(-49.558 -44.756)"/><path d="M147.744 137.595c28.52 3.833 23.48-13.396 1.562-7.625-21.145-7.46-26.23 9.833-1.562 7.625z" fill="url(#r)" fill-rule="evenodd" transform="translate(-49.558 -44.756)"/><path d="M110.813 56.406a3.72 1.656 0 1 1-7.438 0 3.72 1.656 0 1 1 7.438 0z" transform="translate(-8.252 28.026)" fill="url(#s)" stroke-width="2"/><path d="M148.403 127.544c-1.81 0-3.138.61-3.47 1.375-12.88-2.723-17.582 4.483-9.532 7.56l-.405 2.064c-3 2.79-4.393 6.278-5.72 8.656.75.264 2.22.497 3.563.72-1.067 2.71-1.72 5.695-1.72 8.905 0 4.47 1.185 8.585 3.158 11.97-.85.815-1.712 1.672-2.407 2.436 0 0 1.457-.777 3-1.53 3.027 4.62 7.597 7.652 12.783 7.78l-3.095-.218v.72h-.062c-.916 0-1.828.098-2.688.28l-6.126-2.125-.125 5.532c-2.33 2.303-3.782 5.48-3.782 9.03v14.938c4.958 2.456 12.894 3.61 20.94 3.5.014.02.02.043.032.062l3.688-.094-.156-.25c.494-.032.977-.083 1.468-.125v.25l3.47-.468v-.03c4.134-.58 8.02-1.46 11.157-2.845V190.7c0-7.038-5.654-12.702-12.69-12.72l-.437-4.093-8.032 4.094h-2.845l-.06-.468h-.22c7.927-.053 14.518-6.816 16.284-15.875 3.102.163 5.344-.66 8.5-1.687-5.483-1.72-4.733-13.318-11.22-20.375.02-.002.043.002.063 0-.015-.297-.202-1.574-.28-2.094 10.99-2.384 5.537-10.84-9.69-7.905.086-.14.375-.223.375-.375 0-.914-1.666-1.656-3.72-1.656z" fill="url(#t)" stroke-width="2" transform="translate(-49.558 -44.756)"/></g></g></svg>