<svg xmlns="http://www.w3.org/2000/svg" xmlns:xlink="http://www.w3.org/1999/xlink" width="200" height="250" version="1"><defs><linearGradient id="a"><stop offset="0" stop-color="#fff"/><stop offset="1" stop-color="#fff" stop-opacity="0"/></linearGradient><linearGradient gradientTransform="matrix(.187 0 0 .145 -5.339 38.237)" gradientUnits="userSpaceOnUse" id="o" x1="652.295" x2="410.906" xlink:href="#a" y1="77.395" y2="344.417"/><linearGradient gradientUnits="userSpaceOnUse" id="n" x1="104.75" x2="109.5" xlink:href="#b" y1="57.469" y2="55.781"/><linearGradient gradientTransform="translate(-35.991 2.47)" gradientUnits="userSpaceOnUse" id="m" x1="93.5" x2="117.139" xlink:href="#c" y1="62.938" y2="57.702"/><linearGradient gradientTransform="translate(-39.518 2.595)" gradientUnits="userSpaceOnUse" id="l" x1="103.563" x2="111.883" xlink:href="#b" y1="65.109" y2="62.671"/><linearGradient id="d"><stop offset="0" stop-color="#0083cc"/><stop offset="1" stop-color="#24a4cc"/></linearGradient><linearGradient gradientTransform="translate(-40.136 3.506)" gradientUnits="userSpaceOnUse" id="k" x1="98.818" x2="112.891" xlink:href="#d" y1="108.764" y2="103.334"/><linearGradient id="b"><stop offset="0" stop-color="#f0eb00"/><stop offset="1" stop-color="#ff0"/></linearGradient><linearGradient gradientTransform="translate(-35.991 2.47)" gradientUnits="userSpaceOnUse" id="j" x1="101.393" x2="105.545" xlink:href="#b" y1="124.161" y2="120.973"/><linearGradient id="e"><stop offset="0" stop-color="#c10000"/><stop offset="1" stop-color="#ff433e"/></linearGradient><linearGradient gradientTransform="matrix(.145 0 0 .145 17.456 51.558)" gradientUnits="userSpaceOnUse" id="i" x1="294.246" x2="312.092" xlink:href="#e" y1="346.327" y2="322.139"/><linearGradient id="c"><stop offset="0" stop-color="#ff44ab"/><stop offset="1" stop-color="#f6c"/></linearGradient><linearGradient gradientTransform="scale(1.14 .877)" gradientUnits="userSpaceOnUse" id="h" x1="51.852" x2="74.326" xlink:href="#c" y1="154.546" y2="129.502"/><linearGradient id="f"><stop offset="0" stop-color="#ffd8c1"/><stop offset="1" stop-color="#ffeded"/></linearGradient><linearGradient gradientTransform="matrix(.187 0 0 .145 -5.337 38.225)" gradientUnits="userSpaceOnUse" id="g" x1="356.442" x2="484.796" xlink:href="#f" y1="437.499" y2="256.18"/></defs><g><path d="M199 10c0-5-4-9-9-9H10c-5 0-9 4-9 9v230c0 5 4 9 9 9h180c5 0 9-4 9-9V10z" fill="#fff" fill-rule="evenodd" stroke="#000" stroke-width="2"/><text style="text-align:center;line-height:125%" x="21.646" y="40" font-size="32" text-anchor="middle" fill="#f00" stroke="#f00" font-family="Nimbus Roman No9 L"><tspan x="21.646" y="40" style="text-align:center;line-height:125%" font-size="32" text-anchor="middle" stroke="#000" font-family="Nimbus Roman No9 L">J</tspan></text><text style="text-align:center;line-height:125%" x="-176.985" y="-213.752" transform="scale(-1)" font-size="32" text-anchor="middle" fill="#f00" stroke="#f00" font-family="Nimbus Roman No9 L"><tspan x="-176.985" y="-213.752" style="text-align:center;line-height:125%" font-size="32" text-anchor="middle" stroke="#000" font-family="Nimbus Roman No9 L">J</tspan></text><path d="M175.516 201.2c-2.4 1.2-3.6 7.6 2 7.6s4.4-6.4 2-7.6c1.6 1.2 6.8 2.8 6.8-2.8s-7.2-5.2-7.6-.8h-.8s.4-4.4 1.6-6.4h-4c1.2 2 1.6 6.4 1.6 6.4h-.8c-.4-4.4-8-4.8-8 .8 0 4.8 5.6 4 7.2 2.8z" fill-rule="evenodd" stroke="#000"/><path d="M19.515 51.3c-2.4-1.2-3.6-7.6 2-7.6s4.4 6.4 2 7.6c1.6-1.2 6.8-2.8 6.8 2.8s-7.2 5.2-7.6.8h-.8s.4 4.4 1.6 6.4h-4c1.2-2 1.6-6.4 1.6-6.4h-.8c-.4 4.4-8 4.8-8-.8 0-4.8 5.6-4 7.2-2.8z" fill-rule="evenodd" stroke="#000"/><path fill="#ccc" stroke="#000" stroke-width="2" stroke-linecap="round" d="M40 27.5h120v195H40z"/><g><path d="M95.4 82.18c-5.97 3.773-13.47-3.167-17.452 4.878-3.495 4.782 7.53 6.174.57 10.424-4.756 5.124-4.477 7.38-.37 8.008-1.182 5.663-.32 15.17 2.275 20.355-3.212 3.903-.805 2.562 3.552 3.376-1.353 2.156-.576 10.05-5.207 12.49-2.33 7.02-.583 14.642-1.125 21.906 11.275 4.748 24.625 5.288 35.403 2.755 4.74-.99 10.145-1.368 9.19-8.13.285-8.425 1.284-19.517-7.91-23.83-5.372-.752-7.163-4.387-3.04-9.55 3.064-8.357 6.44-4.86 11.144-6.973 4.9-1.312-7-4.54-5.43-9.978-1.522-4.255-3.383-9.258-6.43-12.712 7.68-.69 8.503-8.697 2.26-10.332-6.186-4.122-9.836 2.914-14.544-2.374-.78-.014-2.102-.504-2.885-.313z" stroke-width="2"/><path d="M85.235 85.573c0 11.413-7.563 20.676-16.883 20.676s-16.884-9.264-16.884-20.677c0-11.414 7.564-20.677 16.884-20.677s16.883 9.263 16.883 20.677z" fill="url(#g)" stroke-width="2" transform="translate(27.509 27.865)"/><path d="M64.845 106.727c-7.05 0-12.725 5.676-12.725 12.725v14.93c9.38 4.648 29.526 4.893 40.62 0v-14.93c0-7.05-5.677-12.725-12.726-12.725h-15.17z" fill="url(#h)" stroke-width="2" transform="translate(27.509 27.865)"/><path d="M77.147 103.806c2.527-4.528 5.054-13.18 19.127-13.09 21.84.64 16.63 23.38 24.45 25.835-4.852 1.58-7.298 2.93-14.54.43.792-5.698-.5-9.877-3.925-12.814-4.27 2.24-20.74 1.175-25.113-.36z" fill="#6d2b00" fill-rule="evenodd" stroke-width="1.537"/><g stroke-width="2"><path d="M95.372 113.66c0 1.164-1.364 2.107-3.045 2.107-1.68 0-3.045-.943-3.045-2.107 0-1.163 1.364-2.107 3.045-2.107 1.68 0 3.045.944 3.045 2.107z" fill="#fff"/><path d="M92.812 113.698c0 .973-.78 1.763-1.743 1.763-.963 0-1.744-.79-1.744-1.762 0-.973.78-1.763 1.743-1.763.96 0 1.742.79 1.742 1.763z" fill="#b67870"/><path d="M91.533 113.834c0 .783-.49 1.42-1.092 1.42-.602 0-1.09-.637-1.09-1.42 0-.783.488-1.42 1.09-1.42.604 0 1.093.637 1.093 1.42z"/></g><g stroke-width="2"><path d="M85.284 113.32c0 1.163-1.364 2.106-3.045 2.106-1.682 0-3.046-.943-3.046-2.107 0-1.164 1.364-2.108 3.045-2.108 1.68 0 3.044.944 3.044 2.107z" fill="#fff"/><path d="M82.724 113.357c0 .973-.78 1.763-1.743 1.763-.96 0-1.742-.79-1.742-1.763 0-.973.78-1.763 1.743-1.763.963 0 1.744.79 1.744 1.763z" fill="#b67870"/><path d="M81.445 113.493c0 .783-.49 1.42-1.092 1.42-.603 0-1.092-.637-1.092-1.42 0-.783.49-1.42 1.093-1.42s1.092.637 1.092 1.42z"/></g><path d="M56.8 98.955c1.85 3.622 6.902 1.943 11.73 0-5.325.56-8.994.97-11.73 0z" fill="url(#i)" fill-rule="evenodd" transform="translate(27.509 27.865)"/><path d="M106.452 150.47l1.263.124 1.37 14.513-3.464.466.832-15.102z" fill="#b30d95" stroke-width="2"/><path d="M86.508 114.762c-.792 1.287-1.945 3.402-1.78 4.375.163.972 1.65.762 2.44 1.323l.332-.478c-.694-.493-1.783-.008-1.918-.808s.68-2.915 1.422-4.118l-.496-.294z" fill-rule="evenodd"/><path d="M87.802 122.415c-3.804.378-6.133 3.3-8.06 5.42 0 0 6.236-3.456 8.2-3.386-.14-.492.07-1.123-.14-2.035z" fill="#6d2b00" fill-rule="evenodd"/><path d="M88.67 122.27c3.382.346 9.846 2.97 10.146 5.46 0 0-7.885-4.218-9.74-3.564-.012-.51-.334-.963-.406-1.896z" fill="#6d2b00" fill-rule="evenodd"/><path d="M58.633 108.4c3.633 11.222 8.704 20.945 14.462 29.543l3.686-.112c-5.737-9.207-11.724-19.602-15.15-30.81 0 0-2.036.624-2.997 1.38z" fill="url(#j)" fill-rule="evenodd" transform="translate(27.509 27.865)"/><path d="M56.05 104.88l-.25 10.25 9.314-5.687v1.438l3.687.313-.06-1.937 12.124 5.437-1.25-12.062-10.688 5.438-.25-1.812-3.75-.25v1.937l-8.875-3.062z" fill="url(#k)" fill-rule="evenodd" transform="translate(27.509 27.865)"/><path d="M55.857 64.782l-.538 2.6c7.666 2.23 17.907 1.877 26.76.92-.017-.36-.348-2.52-.348-2.52-8.52.875-19.417.813-25.875-1z" fill="url(#l)" fill-rule="evenodd" transform="translate(27.509 27.865)"/><path d="M68.107 66.345c28.52 3.833 23.48-13.396 1.562-7.625-21.147-7.46-26.23 9.833-1.563 7.625z" fill="url(#m)" fill-rule="evenodd" transform="translate(27.509 27.865)"/><path d="M110.813 56.406a3.72 1.656 0 1 1-7.438 0 3.72 1.656 0 1 1 7.438 0z" transform="translate(27.509 27.865) translate(-38.331 1.532)" fill="url(#n)" stroke-width="2"/><path d="M68.768 56.294c-1.81 0-3.138.61-3.47 1.375-12.88-2.723-17.582 4.483-9.532 7.56l-.406 2.064c-3 2.79-4.393 6.278-5.72 8.656.75.264 2.22.497 3.563.72-1.067 2.71-1.72 5.695-1.72 8.905 0 4.47 1.185 8.585 3.158 11.97-.85.815-1.71 1.672-2.406 2.436 0 0 1.458-.777 3-1.53 3.028 4.62 7.598 7.652 12.784 7.78l-3.095-.218v.72h-.062c-.915 0-1.827.098-2.687.28l-6.126-2.124-.125 5.53c-2.33 2.305-3.782 5.482-3.782 9.032v14.937c4.958 2.457 12.894 3.612 20.94 3.5.014.02.02.044.032.063l3.688-.094-.156-.25c.495-.032.978-.083 1.47-.125v.25l3.468-.468v-.03c4.135-.58 8.022-1.46 11.158-2.845V119.45c0-7.038-5.654-12.702-12.69-12.72l-.437-4.093-8.032 4.094h-2.844l-.062-.468h-.22c7.928-.053 14.52-6.816 16.285-15.874 3.1.162 5.343-.662 8.5-1.688-5.484-1.72-4.734-13.318-11.22-20.375.02-.002.042.002.062 0-.015-.297-.202-1.574-.28-2.094 10.99-2.384 5.537-10.84-9.69-7.905.086-.14.375-.223.375-.375 0-.914-1.666-1.656-3.72-1.656z" fill="url(#o)" stroke-width="2" transform="translate(27.509 27.865)"/></g><path d="M129.816 50c-6-3-9-19 5-19s11 16 5 19c4-3 17-7 17 7s-18 13-19 2h-2s1 11 4 16h-10c3-5 4-16 4-16h-2c-1 11-20 12-20-2 0-12 14-10 18-7z" fill-rule="evenodd" stroke="#000"/><path d="M61.815 200c-6 3-9 19 5 19s11-16 5-19c4 3 17 7 17-7s-18-13-19-2h-2s1-11 4-16h-10c3 5 4 16 4 16h-2c-1-11-20-12-20 2 0 12 14 10 18 7z" fill-rule="evenodd" stroke="#000"/></g></svg>