<svg xmlns="http://www.w3.org/2000/svg" width="200" height="250" version="1"><g><path d="M199 10c0-5-4-9-9-9H10c-5 0-9 4-9 9v230c0 5 4 9 9 9h180c5 0 9-4 9-9V10z" fill="#fff" fill-rule="evenodd" stroke="#000" stroke-width="2"/><text style="text-align:center;line-height:125%" x="21.22" y="40" font-size="32" text-anchor="middle" fill="#f00" stroke="#f00" font-family="Nimbus Roman No9 L"><tspan x="21.22" y="40" style="text-align:center;line-height:125%" font-size="32" text-anchor="middle" stroke="#000" font-family="Nimbus Roman No9 L">6</tspan></text><text style="text-align:center;line-height:125%" x="-177.411" y="-213.752" transform="scale(-1)" font-size="32" text-anchor="middle" fill="#f00" stroke="#f00" font-family="Nimbus Roman No9 L"><tspan x="-177.411" y="-213.752" style="text-align:center;line-height:125%" font-size="32" text-anchor="middle" stroke="#000" font-family="Nimbus Roman No9 L">6</tspan></text><path d="M175.516 201.2c-2.4 1.2-3.6 7.6 2 7.6s4.4-6.4 2-7.6c1.6 1.2 6.8 2.8 6.8-2.8s-7.2-5.2-7.6-.8h-.8s.4-4.4 1.6-6.4h-4c1.2 2 1.6 6.4 1.6 6.4h-.8c-.4-4.4-8-4.8-8 .8 0 4.8 5.6 4 7.2 2.8z" fill-rule="evenodd" stroke="#000"/><path d="M19.515 51.3c-2.4-1.2-3.6-7.6 2-7.6s4.4 6.4 2 7.6c1.6-1.2 6.8-2.8 6.8 2.8s-7.2 5.2-7.6.8h-.8s.4 4.4 1.6 6.4h-4c1.2-2 1.6-6.4 1.6-6.4h-.8c-.4 4.4-8 4.8-8-.8 0-4.8 5.6-4 7.2-2.8z" fill-rule="evenodd" stroke="#000"/><path d="M52.5 45c-6-3-9-19 5-19s11 16 5 19c4-3 17-7 17 7s-18 13-19 2h-2s1 11 4 16h-10c3-5 4-16 4-16h-2c-1 11-20 12-20-2 0-12 14-10 18-7z" fill-rule="evenodd" stroke="#000"/><path d="M137.5 45c-6-3-9-19 5-19s11 16 5 19c4-3 17-7 17 7s-18 13-19 2h-2s1 11 4 16h-10c3-5 4-16 4-16h-2c-1 11-20 12-20-2 0-12 14-10 18-7z" fill-rule="evenodd" stroke="#000"/><path d="M137.5 208.5c-6 3-9 19 5 19s11-16 5-19c4 3 17 7 17-7s-18-13-19-2h-2s1-11 4-16h-10c3 5 4 16 4 16h-2c-1-11-20-12-20 2 0 12 14 10 18 7z" fill-rule="evenodd" stroke="#000"/><path d="M52.5 208.5c-6 3-9 19 5 19s11-16 5-19c4 3 17 7 17-7s-18-13-19-2h-2s1-11 4-16h-10c3 5 4 16 4 16h-2c-1-11-20-12-20 2 0 12 14 10 18 7z" fill-rule="evenodd" stroke="#000"/><path d="M52.5 123.75c-6-3-9-19 5-19s11 16 5 19c4-3 17-7 17 7s-18 13-19 2h-2s1 11 4 16h-10c3-5 4-16 4-16h-2c-1 11-20 12-20-2 0-12 14-10 18-7z" fill-rule="evenodd" stroke="#000"/><path d="M137.5 123.75c-6-3-9-19 5-19s11 16 5 19c4-3 17-7 17 7s-18 13-19 2h-2s1 11 4 16h-10c3-5 4-16 4-16h-2c-1 11-20 12-20-2 0-12 14-10 18-7z" fill-rule="evenodd" stroke="#000"/></g></svg>