<svg xmlns="http://www.w3.org/2000/svg" xmlns:xlink="http://www.w3.org/1999/xlink" width="200" height="250" version="1"><defs><linearGradient gradientTransform="translate(175.438 261.211)" gradientUnits="userSpaceOnUse" id="n" x1="-21.764" x2="-101.909" xlink:href="#a" y1="46.291" y2="98.109"/><linearGradient gradientTransform="translate(18.438 270.208)" gradientUnits="userSpaceOnUse" id="m" x1="53.127" x2="65.8" xlink:href="#b" y1="122.476" y2="113.287"/><linearGradient gradientTransform="matrix(.145 0 0 .145 28.882 325.523)" gradientUnits="userSpaceOnUse" id="l" x1="294.246" x2="312.092" xlink:href="#c" y1="346.327" y2="322.139"/><linearGradient gradientUnits="userSpaceOnUse" id="k" x1="653" x2="708" xlink:href="#d" y1="210.362" y2="160.362"/><linearGradient id="e"><stop offset="0" stop-color="#f0a700"/><stop offset="1" stop-color="#ffed00"/></linearGradient><linearGradient gradientUnits="userSpaceOnUse" id="j" x1="632" x2="698" xlink:href="#e" y1="146.362" y2="85.362"/><linearGradient gradientTransform="matrix(.145 0 0 .145 31.484 326.174)" gradientUnits="userSpaceOnUse" id="i" x1="298.986" x2="449.323" xlink:href="#f" y1="540.539" y2="415.539"/><linearGradient gradientTransform="matrix(.187 0 0 .145 6.089 313.533)" gradientUnits="userSpaceOnUse" id="h" x1="356.442" x2="484.796" xlink:href="#b" y1="437.499" y2="256.18"/><linearGradient id="a"><stop offset="0" stop-color="#fff"/><stop offset="1" stop-color="#fff" stop-opacity="0"/></linearGradient><linearGradient gradientTransform="matrix(.187 0 0 .145 -5.339 38.237)" gradientUnits="userSpaceOnUse" x1="652.295" x2="410.906" xlink:href="#a" y1="77.395" y2="344.417"/><linearGradient gradientUnits="userSpaceOnUse" x1="104.75" x2="109.5" xlink:href="#d" y1="57.469" y2="55.781"/><linearGradient gradientTransform="translate(-35.991 2.47)" gradientUnits="userSpaceOnUse" x1="93.5" x2="117.139" xlink:href="#f" y1="62.938" y2="57.702"/><linearGradient gradientTransform="translate(-39.518 2.595)" gradientUnits="userSpaceOnUse" x1="103.563" x2="111.883" xlink:href="#d" y1="65.109" y2="62.671"/><linearGradient id="g"><stop offset="0" stop-color="#0083cc"/><stop offset="1" stop-color="#24a4cc"/></linearGradient><linearGradient gradientTransform="translate(-40.136 3.506)" gradientUnits="userSpaceOnUse" x1="98.818" x2="112.891" xlink:href="#g" y1="108.764" y2="103.334"/><linearGradient id="d"><stop offset="0" stop-color="#f0eb00"/><stop offset="1" stop-color="#ff0"/></linearGradient><linearGradient gradientTransform="translate(-35.991 2.47)" gradientUnits="userSpaceOnUse" x1="101.393" x2="105.545" xlink:href="#d" y1="124.161" y2="120.973"/><linearGradient id="c"><stop offset="0" stop-color="#c10000"/><stop offset="1" stop-color="#ff433e"/></linearGradient><linearGradient gradientTransform="matrix(.145 0 0 .145 17.456 51.558)" gradientUnits="userSpaceOnUse" x1="294.246" x2="312.092" xlink:href="#c" y1="346.327" y2="322.139"/><linearGradient id="f"><stop offset="0" stop-color="#ff44ab"/><stop offset="1" stop-color="#f6c"/></linearGradient><linearGradient gradientTransform="scale(1.14 .877)" gradientUnits="userSpaceOnUse" x1="51.852" x2="74.326" xlink:href="#f" y1="154.546" y2="129.502"/><linearGradient id="b"><stop offset="0" stop-color="#ffd8c1"/><stop offset="1" stop-color="#ffeded"/></linearGradient><linearGradient gradientTransform="matrix(.187 0 0 .145 -5.337 38.225)" gradientUnits="userSpaceOnUse" x1="356.442" x2="484.796" xlink:href="#b" y1="437.499" y2="256.18"/></defs><g><path d="M199 10c0-5-4-9-9-9H10c-5 0-9 4-9 9v230c0 5 4 9 9 9h180c5 0 9-4 9-9V10z" fill="#fff" fill-rule="evenodd" stroke="#000" stroke-width="2"/><text style="text-align:center;line-height:125%" x="21.646" y="38" font-size="32" text-anchor="middle" fill="#f00" stroke="#f00" font-family="Nimbus Roman No9 L"><tspan x="21.646" y="38" style="text-align:center;line-height:125%" font-size="32" text-anchor="middle" stroke="#000" font-family="Nimbus Roman No9 L">Q</tspan></text><text style="text-align:center;line-height:125%" x="-176.985" y="-213.752" transform="scale(-1)" font-size="32" text-anchor="middle" fill="#f00" stroke="#f00" font-family="Nimbus Roman No9 L"><tspan x="-176.985" y="-213.752" style="text-align:center;line-height:125%" font-size="32" text-anchor="middle" stroke="#000" font-family="Nimbus Roman No9 L">Q</tspan></text><path d="M175.516 201.2c-2.4 1.2-3.6 7.6 2 7.6s4.4-6.4 2-7.6c1.6 1.2 6.8 2.8 6.8-2.8s-7.2-5.2-7.6-.8h-.8s.4-4.4 1.6-6.4h-4c1.2 2 1.6 6.4 1.6 6.4h-.8c-.4-4.4-8-4.8-8 .8 0 4.8 5.6 4 7.2 2.8z" fill-rule="evenodd" stroke="#000"/><path d="M19.515 51.3c-2.4-1.2-3.6-7.6 2-7.6s4.4 6.4 2 7.6c1.6-1.2 6.8-2.8 6.8 2.8s-7.2 5.2-7.6.8h-.8s.4 4.4 1.6 6.4h-4c1.2-2 1.6-6.4 1.6-6.4h-.8c-.4 4.4-8 4.8-8-.8 0-4.8 5.6-4 7.2-2.8z" fill-rule="evenodd" stroke="#000"/><path fill="#ccc" stroke="#000" stroke-width="2" stroke-linecap="round" d="M40 27.5h120v195H40z"/><path d="M129.816 50c-6-3-9-19 5-19s11 16 5 19c4-3 17-7 17 7s-18 13-19 2h-2s1 11 4 16h-10c3-5 4-16 4-16h-2c-1 11-20 12-20-2 0-12 14-10 18-7z" fill-rule="evenodd" stroke="#000"/><path d="M61.815 200c-6 3-9 19 5 19s11-16 5-19c4 3 17 7 17-7s-18-13-19-2h-2s1-11 4-16h-10c3 5 4 16 4 16h-2c-1-11-20-12-20 2 0 12 14 10 18 7z" fill-rule="evenodd" stroke="#000"/><g><path d="M89.403 78.03c.25 8.39-8.774-11.842-4.95 1.018-.177 4.946 5.745 12.647 1.644 15.655-5.49 3.202-9.415 8.683-11.282 14.72 6.724-.955 2.784 4.806 3.49 8.902.205 7.75 5.8 16.133 12.774 19.897-8.467 1.633-11.54 8.885-10.67 15.894-5.694 3.824-.01 8.984-.85 12.525 1.62 3.99 8.94 3.764 13.068 4.938 10.52.872 21.44.545 31.344-3.5-.824-9.424 4.237-22.265-8.29-28.644 6.225-.116 14.1-1.57 20.133-2.887-6.864-2.708-18.925-5.578-16.76-15.307 1.536-11.465-2.272-26.823-15.427-28.974 1.028-6.322 2.55-12.59 2.5-19.03-5.678 14.51-4.547-8.822-7.22 1.217-2.053 7.802-3.52-10.377-5.18 2.977-1.974-2.184-3.702-14.038-3.852-2.275l-.473 2.875z" stroke-width="2"/><path d="M96.66 360.88c0 11.414-7.563 20.677-16.883 20.677s-16.884-9.263-16.884-20.676c0-11.412 7.564-20.675 16.884-20.675s16.884 9.263 16.884 20.676z" fill="url(#h)" stroke-width="2" transform="translate(17.315 -243.723)"/><path d="M76.737 382.71c-7.05 0-12.72 5.67-12.72 12.718v3.187c-1.176 1.834-2.332 3.554-2.093 4.97.177 1.044 1.093 1.892 2.094 2.624v4.124c9.38 4.65 29.532 4.894 40.625 0v-14.906c0-7.05-5.67-12.72-12.72-12.72H76.738z" fill="url(#i)" stroke-width="2" transform="translate(17.315 -243.723)"/><path d="M77.553 107.857s3.897-14.13 20.612-14.41c16.434-.28 20.82 13.882 18.967 29.832-1.713 8.5 11.9 12.784 11.9 12.784-4.852 1.577-16.45 3.014-23.693.516 6.287-4.722 1.045-27.348-2.38-30.284-4.27 3.388-21.034 3.095-25.407 1.56z" fill="#6d2b00" fill-rule="evenodd" stroke-width="1.537"/><g stroke-width="2"><path d="M96.802 116.58c0 1.72-1.364 3.118-3.045 3.118-1.68 0-3.045-1.397-3.045-3.118 0-1.72 1.364-3.117 3.045-3.117 1.68 0 3.045 1.396 3.045 3.117z" fill="#fff"/><path d="M94.242 116.555c0 1.436-.78 2.602-1.743 2.602-.963 0-1.744-1.166-1.744-2.602s.78-2.6 1.743-2.6c.96 0 1.742 1.164 1.742 2.6z" fill="#b67870"/><path d="M92.963 116.92c0 1.165-.49 2.108-1.092 2.108-.602 0-1.09-.943-1.09-2.107 0-1.162.488-2.106 1.09-2.106.604 0 1.093.944 1.093 2.107z"/></g><g fill-rule="evenodd"><path d="M618 99.362l10-85 38 115s34-123 34-119 23 91 23 91l-18 70h-77l-10-72z" fill="url(#j)" transform="matrix(.12 0 0 .097 15.912 74.152)"/><path d="M589 51.362l36 179c27 10.667 60 9.334 84 1l25-178-44 89-23-119-23 118-55-90z" fill="url(#k)" transform="matrix(.12 0 0 .097 15.912 74.152)"/></g><g stroke-width="2"><path d="M86.714 116.075c0 1.72-1.364 3.118-3.045 3.118-1.682 0-3.046-1.397-3.046-3.118 0-1.72 1.364-3.117 3.045-3.117 1.68 0 3.044 1.396 3.044 3.117z" fill="#fff"/><path d="M84.154 116.05c0 1.436-.78 2.602-1.743 2.602-.96 0-1.742-1.166-1.742-2.602s.78-2.6 1.743-2.6c.963 0 1.744 1.164 1.744 2.6z" fill="#b67870"/><path d="M82.875 116.416c0 1.164-.49 2.107-1.092 2.107-.603 0-1.092-.943-1.092-2.107 0-1.163.49-2.107 1.093-2.107s1.092.943 1.092 2.106z"/></g><path d="M68.227 372.92c3.53 4.413 6.935 2.9 11.727 0-4.287-.253-7.188-1.514-11.727 0z" fill="url(#l)" fill-rule="evenodd" transform="translate(17.315 -243.723)"/><path d="M108.164 154.85l1.264.125 1.37 14.512-3.464.25.83-14.886z" fill="#b30d95" stroke-width="2"/><path d="M91.534 160.298l-.813.562c2.045 2.96 3.743 5.674 5.888 6.057 2.146.383 4.673-1.55 6.707-2.463l-.406-.906c-1.957.878-3.845 1.423-5.69 1.093-1.843-.328-3.74-1.522-5.686-4.342z" fill="#b30d95" fill-rule="evenodd"/><path d="M87.203 118.75c-.792 1.287-1.734 2.49-1.57 3.463.164.972 1.442 1.674 2.232 2.235l.33-.478c-.694-.493-1.15-1.13-1.286-1.93-.136-.8.05-1.792.79-2.996l-.497-.294z" fill-rule="evenodd"/><path d="M74.724 383.245s-6.318 11.774-4.882 20.39c5.456-9.764 12.635-19.24 16.656-20.964-1.436-.573-10.338-.286-11.774.575z" fill="url(#m)" fill-rule="evenodd" transform="translate(17.315 -243.723)"/><path d="M79.15 159.784c.28 1.654 2.452 2.847 3.795 3.8l.327-.27c-1.18-.837-1.764-.955-1.994-2.315-.23-1.36-2.407-2.87-2.127-1.216z" fill="#b30d95" fill-rule="evenodd"/><path d="M82.47 318.9c0-.244-1.37 3.726-2.564 7.186L78.5 320.15l-1.594 6.655-3.062-7.53-1.22 8.186-3.468-4.593 3.906 15.782c-10.095 3.594-12.812 12.936-12.812 12.936.89.312 2.514.53 4.22.72-.984 2.62-1.564 5.52-1.564 8.593 0 11.412 7.555 20.655 16.875 20.655 3.865 0 7.374-1.666 10.22-4.344-.467 1.305-1.066 2.417-1.97 3.095 7.243 2.498 18.836 1.077 23.69-.5 0 0-13.62-4.31-11.907-12.813 1.722-14.82-2.07-27.917-15.782-29.5l2.5-14.437-1.843 3c-.683-2.107-2.218-6.84-2.218-7.156zm-5.72 63.81c-7.05 0-12.72 5.67-12.72 12.72v3.187c-1.176 1.834-2.332 3.554-2.093 4.97.177 1.043 1.093 1.89 2.094 2.624v4.157c6.013 2.98 16.362 3.926 26 3.094 1.15-.098 2.322-.093 3.44-.25 4.133-.578 8.05-1.46 11.186-2.843V395.43c0-7.05-5.7-12.72-12.75-12.72H76.75z" fill="url(#n)" stroke-width="2" transform="translate(17.315 -243.723)"/></g></g></svg>